# xmcd
#
# Track frame offsets: 
#        182
#        13390
#        25680
#        36572
#        46902
#        57722
#        68962
#        80702
#        93630
#        108160
#        120310
#        131750
#        145385
#        158770
#        169287
#        180805
#
# Disc length: 2719 seconds
#
# Revision: 5
# Processed by: cddbd v1.5.2PL0 Copyright (c) Steve Scherf et al.
# Submitted via: ExactAudioCopyFreeDBPlugin 1.0
#
DISCID=e00a9d10
DTITLE=Various Artist - Rhythm and Blues
DYEAR=1900
DGENRE=
TTITLE0=Ben E. King - Stand by me
TTITLE1=Otis Redding - (Sittin' on) The dock of the bay
TTITLE2=Wilson Pickett - In the midnight hour
TTITLE3=Aretha Franklin - Think
TTITLE4=Aretha Franklin - Respect
TTITLE5=Otis Redding - These arms of mine
TTITLE6=Sam and Dave - Soul man
TTITLE7=Percy Sledge - When a man love a woman
TTITLE8=Otis Redding - I've been loving you too long
TTITLE9=The Drifters - Under the boardwalk
TTITLE10=Sam and Dave - Hold on, i'm coming
TTITLE11=King Floyd - Groove me
TTITLE12=Aretha Franklin - Don't play that song (you lied)
TTITLE13=Arthur Conley - Sweet soul music
TTITLE14=Ray Charles - Hallelujah, i love her so
TTITLE15=Ray Charles - What'd i say
EXTD=
EXTT0=
EXTT1=
EXTT2=
EXTT3=
EXTT4=
EXTT5=
EXTT6=
EXTT7=
EXTT8=
EXTT9=
EXTT10=
EXTT11=
EXTT12=
EXTT13=
EXTT14=
EXTT15=
PLAYORDER=
